<svg xmlns="http://www.w3.org/2000/svg" xmlns:xlink="http://www.w3.org/1999/xlink" id="svg4332" width="500" height="300" viewBox="0 0 500 300">
  <defs id="defs4334">
    <linearGradient id="linearGradient4214">
      <stop id="stop4216" offset="0" stop-color="#3f3f3f"/>
      <stop id="stop4218" offset="1" stop-color="#3f3f3f" stop-opacity="0"/>
    </linearGradient>
    <linearGradient id="linearGradient4220" x1="-586.59" x2="227.203" y1="319.457" y2="681.65" xlink:href="#linearGradient4214" gradientUnits="userSpaceOnUse"/>
    <filter id="filter4570" color-interpolation-filters="sRGB">
      <feFlood id="feFlood4572" flood-opacity=".498" flood-color="#000" result="flood"/>
      <feComposite id="feComposite4574" in="flood" in2="SourceGraphic" operator="in" result="composite1"/>
      <feGaussianBlur id="feGaussianBlur4576" in="composite1" stdDeviation="8.73" result="blur"/>
      <feOffset id="feOffset4578" dx="-3.4" dy="-3.4" result="offset"/>
      <feComposite id="feComposite4580" in="SourceGraphic" in2="offset" result="composite2"/>
    </filter>
    <mask maskUnits="userSpaceOnUse" id="mask5896">
      <path id="rect5898" fill="#b7c8c4" stroke-width=".886" stroke-linecap="round" stroke-linejoin="round" stroke-dasharray="7.08541063, 3.54270532" d="M115.436 703.462h100.842V602.62H115.436z"/>
    </mask>
    <clipPath id="clipPath3930">
      <path d="M96.4 639.5c0-38.107 30.892-69 69-69 38.107 0 69 30.893 69 69 0 38.108-30.893 69-69 69-38.108 0-69-30.892-69-69" id="path3928"/>
    </clipPath>
    <clipPath id="clipPath3930-9">
      <path d="M96.4 639.5c0-38.107 30.892-69 69-69 38.107 0 69 30.893 69 69 0 38.108-30.893 69-69 69-38.108 0-69-30.892-69-69" id="path3928-2"/>
    </clipPath>
    <filter id="filter5930" color-interpolation-filters="sRGB">
      <feFlood flood-opacity=".576" flood-color="#E5E5E5" result="flood" id="feFlood5920"/>
      <feComposite in="flood" in2="SourceGraphic" operator="in" result="composite1" id="feComposite5922"/>
      <feGaussianBlur in="composite1" stdDeviation="4.5" result="blur" id="feGaussianBlur5924"/>
      <feOffset dx="3" dy="3" result="offset" id="feOffset5926"/>
      <feComposite in="SourceGraphic" in2="offset" result="composite2" id="feComposite5928"/>
    </filter>
  </defs>
  <g id="layer3" transform="translate(38.783 -100.007) scale(.54048)">
    <circle id="circle" cx="390.643" cy="463.148" r="206.412" fill="#cfcfcf" fill-opacity=".43" stroke="#cfcfcf" stroke-width="4.32" stroke-linecap="round" stroke-linejoin="round" stroke-dasharray="34.55748309, 17.27874155"/>
  </g>
  <g id="images" filter="url(#filter5930)">
    <g id="portrait">
      <path id="portrait-frame" d="M240.005 25L425 50.76l-25.522 186.713-184.995-25.76z" stroke-dasharray="10.447632, 5.22381601" stroke-linejoin="round" stroke-linecap="round" stroke-width="1.306" fill="#f9f9f9"/>
      <path id="portrait-bg" d="M245.275 32.022l172.77 24.056-23.836 174.374-172.77-24.056z" stroke-dasharray="9.75713465, 4.87856734" stroke-linejoin="round" stroke-linecap="round" stroke-width="1.22" fill="#b7c8c4"/>
      <path d="M383.746 187.346c-7.412-5.09-20.662-14.256-24.506-16.822-3.835-2.56-14.243-10.12-14.243-10.12s.863-9.544-2.37-10.607l1.504-6.308s5.18-8.32 6-13.87c0 0 3.37 3.91 5.86-3.39 2.49-7.29 6.46-20.9-.09-18.48 0 0 2.89-10.93 2.77-17.76-.12-6.84-2.72-28.25-28.06-32.06-25.33-3.81-34.01 15.92-36.1 22.42-2.07 6.51-2.48 17.81-2.48 17.81-5.57-4.25-5.68 9.94-5.42 17.66.27 7.71 4.63 4.96 4.63 4.96-.82 5.55 1.727 15.03 1.727 15.03l-.385 6.482c-3.386.06-5.33 9.45-5.33 9.45s-12.14 4.18-16.56 5.51c-4.42 1.32-19.74 6.195-28.305 8.884-8.56 2.69-15.34 41.06-15.34 41.06l78.82 11.166 80.064 10.846s5.25-36.797-2.164-41.888" id="portrait-silhouette" stroke-width="1.321" fill="#52504b"/>
    </g>
    <g id="ceph">
      <g id="g9241">
        <path id="rect5177" d="M75 93.358l159.203-28.14 27.882 160.68-159.203 28.142z" stroke-dasharray="46.21276855, 23.10638428" stroke-linejoin="round" stroke-linecap="round" stroke-width="5.777" fill="#1a1a1a" opacity=".8"/>
        <path id="path3542" d="M126.497 50.07s-.64 12.332-1.206 18.478c-.51 5.64-4.26 13.59-1.2 17.876 8.68 12.17 17.24 19.607 19.92 24.01 2.87 4.717 6.03 9.594 12.3 17.18 4.83 5.84 6.25 13.472 3.64 17.36-5.12 7.632-12.65 7.833-16.22 10.645-3.56 2.81-3.92 5-4.37 7.03-1 4.62-.62 6.15.11 9.84.53 2.71 3.54 3.51 4.62 5.52 1.45 2.68-3.56 10.05-7.09 11.98-3.53 1.93-8.27.26-8.27.26m.1 1.7s6.66 1.57 8.14 4.11c1.48 2.54 3.12 8.67 1.21 11.45-4.64 6.75-10.58 7.25-10.84 12.85-.39 8.23 5.17 14.65 3.22 21.69-4.23 15.24-10.74 20.8-21.69 21.69-21.03 1.71-57.7-2.3-61.46 6.02-4.89 10.84-18.48 30.93-18.48 30.93" transform="matrix(.5985 -.1058 .10482 .60407 104.306 62.332)" enable-background="new" stroke-width="2.183" stroke="#fbfbfb" fill-rule="evenodd" fill="none"/>
        <path id="path4515" d="M147.74 147.566s.766-1.02-.427-1.597c-3.414-1.66-10.9 6.14-10.9 6.14" transform="matrix(.5985 -.1058 .10482 .60407 104.306 62.332)" enable-background="new" stroke-width="2.183" stroke="#fbfbfb" fill-rule="evenodd" fill="none"/>
        <path id="path4399" d="M73.07 188.96c1.084-1.858 6.025-1.958 6.025-1.958l4.117 2.812s2.635-1.757 3.867-1.205c1.77.79 3.56 3.75 2.41 5.32-2.05 2.78-2.46 5.8-4.07 14.71-.64 3.5-3.15 9.97-6.93 10.64-2.26.4.6-7.13.6-7.13s1.04-3.94-.1-6.43c-1.28-2.78-5.39 7.01-7.03 10.64-.37.81-1.93-.66-2.21-1.51 0 0-.83-4.87.4-6.63 2.14-3.07 2.78-5.32 3.31-8.74.43-2.82-1.65-8.41-.4-10.55z" transform="matrix(.5985 -.1058 .10482 .60407 104.306 62.332)" enable-background="new" stroke-width="2.183" stroke="#fbfbfb" fill-rule="evenodd" fill="none"/>
        <path id="path4396" d="M83.915 159.347c-1.747-1.465-1.134 4.644-3.414 4.62-1.8-.02-2.34-3.63-4.41-3.616-1.76.02-2.16 5.47-2.06 7.17.74 12.86-2.55 13.42-2.18 15.51.23 2.38.74 2.79 2.79 4.27.88.63 2.88-.49 4.28-.23 1.69.31 3 2.38 4.69 2.1 2.21-.35 5.01-2.28 4.95-4.51-.08-3.25-2.41-8.23-2.41-8.23s2.72-12.93-2.21-17.06z" transform="matrix(.5985 -.1058 .10482 .60407 104.306 62.332)" enable-background="new" stroke-width="2.183" stroke="#fbfbfb" fill-rule="evenodd" fill="none"/>
        <path id="path4390" d="M96.787 75.887s-9.332 7.358-10.226 19.6c-.46 6.413.83 16.796 5.12 21.588 1.48 1.65 5.4.568 5.4.568" transform="matrix(.5985 -.1058 .10482 .60407 104.306 62.332)" enable-background="new" stroke-width="2.183" stroke="#fbfbfb" fill-rule="evenodd" fill="none"/>
        <path id="path4392" d="M95.467 120.885s-2.565 3.23-3.35 5.11c-1.777 4.256-2.47 10.63-2.893 13.532-.412 2.83-.504 5.17-2.663 7.44-1.67 1.76-4.44 3.324-7.04 2.49-2.2-.706-4.75-2.515-5.4-5.28-2.52-10.69 1.65-22.22.52-33.35-.52-5.142-3.68-12.453-3.41-17.613.41-7.77 10.23-17.327 10.23-17.327" transform="matrix(.5985 -.1058 .10482 .60407 104.306 62.332)" enable-background="new" stroke-width="2.183" stroke="#fbfbfb" fill-rule="evenodd" fill="none"/>
        <path id="path4373" d="M31.86 81.888s-4.835 1.07-8.412.744c-1.746-.16-3.627 1.823-3.25 3.26.934 3.567 8.987 3.002 8.235 5.284-1.505 4.566-6.882 8.82-11.664 8.835-.71.01-1.44-.47-2.05-.79-1.96-1.06-3.23-3.28-3.32-5.35-.14-3.06 5.86-5.86 4.57-8.64-.82-1.76-3.6-.15-4.98.81C6.44 89.21.21 97.95.21 97.95" transform="matrix(.5985 -.1058 .10482 .60407 104.306 62.332)" enable-background="new" stroke-width="2.183" stroke="#fbfbfb" fill-rule="evenodd" fill="none"/>
        <path id="path4383" d="M48.782 139.657s-1.88-4.87-2.556-7.386c-1.092-4.05-1.824-7.69-2.415-12.35-.65-5.17 5.76-15.2 7.67-10.58 1.67 4.02-4.33 14.94-4.26 22.94.03 2.52 1.57 7.39 1.57 7.39z" transform="matrix(.5985 -.1058 .10482 .60407 104.306 62.332)" enable-background="new" stroke-width="2.183" stroke="#fbfbfb" fill-rule="evenodd" fill="none"/>
        <path d="M53.61 175.02s-2.814-7.776-1.703-10.793m0 0c8.49-24.854 2.958-25.496 2.958-25.496-7.468 4.86-16.77 10.07-24.377 9.76m0 0c-4.84-.35-9.1-4.89-11.248-9.24-1.72-3.48 2.588-9.16-.402-11.65-3.438-2.85-9.767-.78-13.256 2.01-2.02 1.62-3.234 4.68-2.812 7.23 2.373 14.37 11.078 21.53 10.846 41.78-.123 10.73-2.007 22.04 1.607 32.14 2.783 7.78 12.453 12.46 12.453 12.46s14.502 1.23 21.29 3.62c9.838 3.47 15.778 8.43 23.3 13.26 11.006 7.06 26.85 17.63 35.66 17.49 4.92-.08 10.69-9.32 10.135-12.67-1.58-9.53-6.02-16.69-4.82-24.85" id="path3554" transform="matrix(.5985 -.1058 .10482 .60407 104.306 62.332)" enable-background="new" stroke-width="2.183" stroke="#fbfbfb" fill-rule="evenodd" fill="none"/>
        <path id="path4368" d="M118.633 56.303s1.388 15.52-2.84 21.304c-1.696 2.32-4.846 1.617-7.31 2.182-1.82.41-2.956 2.79-2.956 2.79" transform="matrix(.5985 -.1058 .10482 .60407 104.306 62.332)" enable-background="new" stroke-width="2.183" stroke="#fbfbfb" fill-rule="evenodd" fill="none"/>
        <path id="path4370" d="M115.843 77.59s1.154 1.53 2.37 4.925c1.168 3.26 2.27 7.746 5.084 9.756 5.37 3.84 8.276 7.46 5.056 5.6-4.218-2.43-4.826-2.22-6.634-3.03-3.71-1.66-9.35-6.26-10.77-5.79-3.23 1.08-6.95-1.53-6.9-1.56" transform="matrix(.5985 -.1058 .10482 .60407 104.306 62.332)" enable-background="new" stroke-width="2.183" stroke="#fbfbfb" fill-rule="evenodd" fill="none"/>
        <path id="path3550" d="M124.488 174.198c-8.302-19.818-1.74-14.73 4.42-22.496 0 0-12.454-1.473-18.48-8.436-23.567 15.13-38.698 6.963-56.24 8.838 16.07 6.56 35.988 2.747 46.03 10.11 7.5 4.42 7.228 13.355 15.128 16.167" transform="matrix(.5985 -.1058 .10482 .60407 104.306 62.332)" enable-background="new" stroke-width="2.183" stroke="#fbfbfb" fill-rule="evenodd" fill="none"/>
        <path id="path4366" d="M120.22 191.47c2.887 1.18 1.56 7.926.854 11.65-1.095 5.782-4.366 11.043-7.733 15.868-1.32 1.903-2.25 4.246-4.82 5.022-2.27.687-1.21-3.955-1.1-6.528.23-5.533 2.52-8.838 4.62-15.365.62-1.922 3.53-2.823 4.82-4.82 1.2-1.847 1.41-6.627 3.37-5.826z" transform="matrix(.5985 -.1058 .10482 .60407 104.306 62.332)" enable-background="new" stroke-width="2.183" stroke="#fbfbfb" fill-rule="evenodd" fill="none"/>
        <path id="path3560" d="M123.626 175.736c-2.458-5.59-5.005-13.268-9.9-17.607-1.307-1.23-2.18.87-2.268 1.97-.49 3.16-.39 6.39.86 9.34 1.375 4.34 2.326 5.1 2.873 7.87.5 1.46-.11 3.49 1.07 4.92 1.29 1.56 3.52 2.75 4.42 4.57 1.05 2.27.96 4.27 3.07 5.83 2.07.83 2.28-.34 2.78-1.29.43-2.95.64-5.96.13-8.85-.38-2.85-2.02-4.5-3.02-6.76z" transform="matrix(.5985 -.1058 .10482 .60407 104.306 62.332)" enable-background="new" stroke-width="2.183" stroke="#fbfbfb" fill-rule="evenodd" fill="none"/>
      </g>
    </g>
  </g>
  <g id="incorrect">
    <g id="x" fill="#e00" fill-rule="evenodd" stroke-width=".333">
      <path id="path4950" d="M225.32 110l-14.98 14.98L274 188.64l14.98-14.98L225.317 110z"/>
      <path id="path4952" d="M210.34 173.66L274 110l14.98 14.98-63.662 63.66-14.978-14.98z"/>
    </g>
  </g>
</svg>
