<svg xmlns="http://www.w3.org/2000/svg" id="svg4332" width="520543.03" height="520543.068" xmlns:xlink="http://www.w3.org/1999/xlink" viewBox="0 0 488.00907 488.00912">
  <defs id="defs4334">
    <linearGradient id="linearGradient4214">
      <stop id="stop4216" offset="0" stop-color="#3f3f3f"/>
      <stop id="stop4218" offset="1" stop-color="#3f3f3f" stop-opacity="0"/>
    </linearGradient>
    <linearGradient id="linearGradient4220" x1="-586.59" x2="227.203" y1="319.457" y2="681.65" xlink:href="#linearGradient4214" gradientUnits="userSpaceOnUse"/>
    <filter id="filter4570" color-interpolation-filters="sRGB">
      <feFlood id="feFlood4572" flood-opacity=".498" flood-color="#000" result="flood"/>
      <feComposite id="feComposite4574" in="flood" in2="SourceGraphic" operator="in" result="composite1"/>
      <feGaussianBlur id="feGaussianBlur4576" in="composite1" stdDeviation="8.73" result="blur"/>
      <feOffset id="feOffset4578" dx="-3.4" dy="-3.4" result="offset"/>
      <feComposite id="feComposite4580" in="SourceGraphic" in2="offset" result="composite2"/>
    </filter>
  </defs>
  <g id="layer3" transform="translate(-146.64 -219.144)">
    <ellipse id="circle" cx="390.643" cy="463.148" fill="#cfcfcf" fill-opacity=".43" stroke="#cfcfcf" stroke-width="4.32" ry="206.412" rx="206.412" stroke-linecap="round" stroke-linejoin="round" stroke-dasharray="34.55748309, 17.27874155"/>
  </g>
  <g id="layer2">
    <g id="cephalo">
      <path id="rect4916" fill="url(#linearGradient4220)" stroke-width="2.195" d="M-586.59 150.74h336.18v337.435h-336.18z" transform="rotate(-100 -122.467 2.95)" stroke-linecap="round" stroke-linejoin="round" filter="url(#filter4570)"/>
      <path id="path3542" fill="none" fill-rule="evenodd" stroke="#afafaf" stroke-width="5" d="M249.637 73.508s4.468 14.585 6.408 21.96c1.78 6.766.794 17.576 6.154 21.26 15.217 10.458 28.29 15.478 33.26 19.458 5.32 4.264 11.045 8.592 21.535 14.747 8.074 4.737 12.946 12.997 11.56 18.612-2.72 11.024-11.38 14.44-14.33 19.21-2.95 4.77-2.444 7.47-2.1 10.006.784 5.8 1.874 7.405 4.274 11.384 1.76 2.92 5.585 2.584 7.695 4.46 2.814 2.5.11 13.18-3.168 16.91-3.28 3.73-9.492 3.804-9.492 3.804m.838 1.94s8.398-.99 11.183 1.342c2.784 2.33 7.282 8.75 6.236 12.78-2.542 9.798-9.217 12.893-7.16 19.506 3.026 9.726 12.192 14.82 12.896 23.823 1.524 19.484-3.674 28.683-16.016 34.345-23.696 10.87-67.954 21.716-68.8 32.963-1.103 14.656-8.382 43.713-8.382 43.713" enable-background="new"/>
      <path id="path4515" fill="none" fill-rule="evenodd" stroke="#afafaf" stroke-width="5" d="M319.488 169.71s.46-1.507-1.17-1.675c-4.66-.48-10.058 11.736-10.058 11.736" enable-background="new"/>
    </g>
  </g>
  <g id="incorrect">
    <g id="layer1-7" fill="#e00" fill-rule="evenodd" stroke-width=".333">
      <path id="path4950" d="M197.343 169.278l-28.57 28.572L290.2 319.278l28.572-28.57-121.43-121.43z"/>
      <path id="path4952" d="M168.772 290.707L290.2 169.277l28.572 28.573-121.43 121.428-28.57-28.57z"/>
    </g>
  </g>
</svg>