<?xml version="1.0" encoding="UTF-8" standalone="no"?>
<!-- Created with Inkscape (http://www.inkscape.org/) -->

<svg
   xmlns:osb="http://www.openswatchbook.org/uri/2009/osb"
   xmlns:dc="http://purl.org/dc/elements/1.1/"
   xmlns:cc="http://creativecommons.org/ns#"
   xmlns:rdf="http://www.w3.org/1999/02/22-rdf-syntax-ns#"
   xmlns:svg="http://www.w3.org/2000/svg"
   xmlns="http://www.w3.org/2000/svg"
   xmlns:sodipodi="http://sodipodi.sourceforge.net/DTD/sodipodi-0.dtd"
   xmlns:inkscape="http://www.inkscape.org/namespaces/inkscape"
   width="148.69405mm"
   height="148.69405mm"
   viewBox="0 0 148.69405 148.69404"
   version="1.1"
   id="svg4946"
   inkscape:version="0.92.0 r"
   sodipodi:docname="portait.svg">
  <defs
     id="defs4940">
    <linearGradient
       id="linearGradient5796"
       osb:paint="solid">
      <stop
         style="stop-color:#ececec;stop-opacity:1;"
         offset="0"
         id="stop5794" />
    </linearGradient>
    <clipPath
       clipPathUnits="userSpaceOnUse"
       id="clipPath3930">
      <path
         d="m 96.4,639.5 c 0,-38.107 30.892,-69 69,-69 v 0 c 38.107,0 69,30.893 69,69 v 0 c 0,38.108 -30.893,69 -69,69 v 0 c -38.108,0 -69,-30.892 -69,-69"
         id="path3928"
         inkscape:connector-curvature="0" />
    </clipPath>
  </defs>
  <sodipodi:namedview
     id="base"
     pagecolor="#141414"
     bordercolor="#666666"
     borderopacity="1.0"
     inkscape:pageopacity="0"
     inkscape:pageshadow="2"
     inkscape:zoom="0.7"
     inkscape:cx="66.301998"
     inkscape:cy="243.57847"
     inkscape:document-units="mm"
     inkscape:current-layer="layer1"
     showgrid="true"
     inkscape:window-width="1440"
     inkscape:window-height="829"
     inkscape:window-x="0"
     inkscape:window-y="0"
     inkscape:window-maximized="1"
     fit-margin-top="0"
     fit-margin-left="0"
     fit-margin-right="0"
     fit-margin-bottom="0">
    <inkscape:grid
       type="xygrid"
       id="grid5205" />
  </sodipodi:namedview>
  <metadata
     id="metadata4943">
    <rdf:RDF>
      <cc:Work
         rdf:about="">
        <dc:format>image/svg+xml</dc:format>
        <dc:type
           rdf:resource="http://purl.org/dc/dcmitype/StillImage" />
        <dc:title></dc:title>
      </cc:Work>
    </rdf:RDF>
  </metadata>
  <g
     inkscape:label="Ebene 1"
     inkscape:groupmode="layer"
     id="layer1"
     transform="translate(-36.129692,-75.521088)">
    <rect
       style="opacity:1;fill:#ececec;fill-opacity:1;stroke:none;stroke-width:1.30595398;stroke-linecap:round;stroke-linejoin:round;stroke-miterlimit:4;stroke-dasharray:10.447632, 5.22381601;stroke-dashoffset:0;stroke-opacity:1"
       id="rect4948"
       width="148.69405"
       height="148.69405"
       x="36.129692"
       y="75.521088" />
    <rect
       style="opacity:1;fill:#b7c8c4;fill-opacity:1;stroke:none;stroke-width:1.2196418;stroke-linecap:round;stroke-linejoin:round;stroke-miterlimit:4;stroke-dasharray:9.75713465, 4.87856734;stroke-dashoffset:0;stroke-opacity:1"
       id="rect4948-6"
       width="138.86667"
       height="138.86667"
       x="41.04369"
       y="80.434639" />
    <path
       style="opacity:1;fill:#b7c8c4;fill-opacity:1;stroke:none;stroke-width:1.2196418;stroke-linecap:round;stroke-linejoin:round;stroke-miterlimit:4;stroke-dasharray:9.75713476, 4.87856739;stroke-dashoffset:0;stroke-opacity:1"
       d="M 41.043705,80.434669 H 179.91039 V 219.30135 H 41.043705 Z"
       id="rect5898"
       inkscape:connector-curvature="0" />
    <path
       d="m 49.484714,195.14761 c 6.869276,-3.24766 19.156214,-9.10564 22.709311,-10.72874 3.553096,-1.6231 13.250241,-6.52576 13.250241,-6.52576 0,0 0.479092,-7.92762 3.320635,-8.38907 l -0.468344,-5.36072 c 0,0 -3.303437,-7.45668 -3.295757,-12.11215 0,0 -3.319213,2.78514 -4.492315,-3.50099 -1.173103,-6.28611 -2.81121,-17.92743 2.391899,-15.12648 0,0 -1.05077,-9.31155 -0.095,-14.89639 0.956886,-5.58482 5.836522,-22.802095 27.610556,-22.767356 21.77518,0.03473 26.59798,17.267496 27.53643,22.855346 0.93734,5.58785 -0.14415,14.89599 -0.14415,14.89599 5.21232,-2.78431 3.53582,8.85172 2.34197,15.13406 -1.19383,6.28233 -4.50382,3.48662 -4.50382,3.48662 -0.009,4.65548 -3.33572,12.10158 -3.33572,12.10158 l -0.48603,5.35918 c 2.84002,0.47051 3.29294,8.39962 3.29294,8.39962 0,0 9.68093,4.9336 13.22864,6.56803 3.54773,1.63441 15.81529,7.53159 22.67381,10.80115 6.85852,3.26955 7.98468,23.58194 7.98468,23.58194 H 110.21303 41.421359 c 0,0 1.194079,-20.52818 8.063358,-23.77586"
       style="fill:#52504b;fill-opacity:1;fill-rule:nonzero;stroke:none;stroke-width:1.10824299"
       id="path3934"
       inkscape:connector-curvature="0"
       sodipodi:nodetypes="csccccsccscccccccsscccc" />
  </g>
</svg>
